# xmcd CD database file
#
# Track frame offsets:
#	150
#	14190
#	27133
#	37455
#	50785
#	64593
#	86025
#	102328
#	115428
#	126015
#	137913
#	153155
#	168198
#	184983
#
# Disc length: 2654 seconds
#
# Revision: 0
# Processed by: cddbd v1.4PL0 Copyright (c) Steve Scherf et al.
# Submitted via: CDex 1.50beta8
#
DISCID=cb0a5c0e
DTITLE=Specs Hildebrand and The Living Room Band - Spike Heels
DYEAR=1900
DGENRE=Country
TTITLE0=Stop That Tape
TTITLE1=The Deadbeat Tattoo
TTITLE2=Black And White
TTITLE3=Ships Will Sail
TTITLE4=Passion Play
TTITLE5=When The Market Is Closing
TTITLE6=We Sing Rock Of Ages
TTITLE7=Concierto De Aranjuez
TTITLE8=Silent Movie
TTITLE9=Steel Halos
TTITLE10=I'm Only Here
TTITLE11=Spike Heels
TTITLE12=They Won't Take Me Alive
TTITLE13=Stop That Tape
EXTD=
EXTT0=
EXTT1=
EXTT2=
EXTT3=
EXTT4=
EXTT5=
EXTT6=
EXTT7=
EXTT8=
EXTT9=
EXTT10=
EXTT11=
EXTT12=
EXTT13=
PLAYORDER=
